<?xml version="1.0" encoding="UTF-8"?>
<svg version="1.1" xmlns="http://www.w3.org/2000/svg" width="800" height="800">
<path d="M0 0 C1.28509398 -0.00551503 1.28509398 -0.00551503 2.59614944 -0.01114148 C5.46620534 -0.02215212 8.336225 -0.02601774 11.20629883 -0.02983093 C13.26473607 -0.03609767 15.32317218 -0.04274465 17.38160706 -0.04974365 C24.14217341 -0.0707652 30.90273994 -0.08114573 37.66333008 -0.09111023 C39.99369315 -0.09515879 42.32405611 -0.09927575 44.65441895 -0.10346031 C55.60598724 -0.12250947 66.55754881 -0.13673989 77.50913048 -0.14507228 C90.13448272 -0.15483759 102.75965931 -0.18113997 115.38494968 -0.22157317 C125.1533272 -0.25177893 134.92165449 -0.26654548 144.69007778 -0.26985329 C150.51940649 -0.27219908 156.34854749 -0.28109801 162.17782593 -0.30631447 C167.66737256 -0.32967753 173.15660899 -0.3337953 178.64619255 -0.32355309 C180.6532183 -0.32305958 182.66025976 -0.32932483 184.66723824 -0.34310913 C202.37470518 -0.45785259 214.88043732 1.80355362 228.53833008 13.98701477 C237.45283578 23.07443114 239.63323876 35.60334532 239.60954285 47.84301758 C239.6118084 48.706096 239.61407396 49.56917443 239.61640817 50.45840675 C239.62272665 53.34385163 239.62192018 56.22924929 239.62109375 59.11470032 C239.62408663 61.18638164 239.62748946 63.2580624 239.63127136 65.32974243 C239.6401036 70.95391628 239.64244918 76.5780749 239.64308715 82.20225501 C239.64379822 85.71840367 239.64593366 89.23454848 239.64858437 92.75069618 C239.65783602 105.02437714 239.66191958 117.29804724 239.66113281 129.57173157 C239.66053243 141.00056673 239.67107692 152.42935463 239.68687648 163.85817784 C239.69996802 173.67919851 239.70531601 183.50020377 239.7046774 193.32123309 C239.70442284 199.18283774 239.70725082 205.04440039 239.71785545 210.90599632 C239.72756328 216.42257079 239.7275972 221.93906338 239.72033882 227.45564079 C239.71929624 229.47478607 239.7216364 231.49393652 239.72769928 233.51307297 C239.79614097 257.89540789 234.89756961 270.55446045 217.57505798 288.18165588 C215.79180246 289.97376481 214.0059069 291.7632495 212.21777344 293.55049133 C211.22431692 294.54694938 210.2310623 295.54360876 209.23799133 296.54045105 C206.57104817 299.21613075 203.90096325 301.88865263 201.22996974 304.56028843 C199.55638008 306.23459374 197.88350649 307.90961115 196.21087837 309.58487701 C190.36217558 315.44279418 184.51093368 321.29816093 178.65722656 327.15107727 C173.22045601 332.58724591 167.7893032 338.02898287 162.36072057 343.47332692 C157.67868649 348.16846491 152.99277613 352.85971051 148.30386645 357.54798198 C145.51243457 360.33916 142.72254653 363.1318377 139.93656731 365.92845917 C137.31848207 368.55627532 134.69557201 371.17918063 132.06899834 373.79851151 C130.65741398 375.20856445 129.25074246 376.62353032 127.8442688 378.03868103 C115.65999124 390.16327072 115.65999124 390.16327072 107.91333008 393.39717102 C107.23141602 393.69107727 106.54950195 393.98498352 105.84692383 394.28779602 C99.90057414 396.44298042 94.53101409 397.44193451 88.21813965 397.42132568 C87.41419879 397.42656236 86.61025794 397.43179904 85.78195524 397.43719441 C83.10238845 397.45213192 80.42301368 397.45289819 77.7434082 397.4535675 C75.8159961 397.46119344 73.88858702 397.46962169 71.96118164 397.47879028 C66.73347708 397.50070525 61.50583101 397.50953071 56.27808571 397.51461673 C53.00662676 397.51826528 49.735183 397.52450808 46.46372986 397.53161812 C35.03481375 397.55610674 23.60594295 397.56916227 12.17700195 397.57270813 C1.55075579 397.57633808 -9.07520061 397.6061963 -19.70135832 397.64811271 C-28.84391875 397.68290273 -37.9863836 397.69825811 -47.12900972 397.69895416 C-52.58058883 397.69974431 -58.0318729 397.70836128 -63.48338318 397.73695183 C-68.61846274 397.7632804 -73.75300585 397.76525563 -78.88812256 397.74929619 C-80.76208168 397.74749314 -82.63607271 397.75406773 -84.50996399 397.7701149 C-99.82531403 397.89316248 -113.98010592 396.3627454 -125.52416992 385.14717102 C-126.15838867 384.55162415 -126.79260742 383.95607727 -127.44604492 383.34248352 C-136.27064544 374.25389923 -138.63640645 362.89778048 -138.66461182 350.59060669 C-138.66758294 349.86213663 -138.67055406 349.13366658 -138.67361522 348.38312167 C-138.68223828 345.95916334 -138.68380501 343.53525476 -138.68530273 341.11128235 C-138.68993544 339.36619462 -138.69496071 337.6211079 -138.7003479 335.87602234 C-138.71343031 331.14644349 -138.71990872 326.41687881 -138.72435856 321.68728471 C-138.72729602 318.72809234 -138.73140209 315.7689038 -138.73586273 312.80971336 C-138.74952673 303.53844847 -138.75919875 294.26719236 -138.76306462 284.9959181 C-138.76754275 274.31702684 -138.78508389 263.63826374 -138.81406522 252.95941144 C-138.83572601 244.68908486 -138.84577125 236.41879422 -138.84710574 228.14843959 C-138.84815062 223.21625785 -138.85399072 218.28419677 -138.87192535 213.35204506 C-138.88848224 208.70872226 -138.8905248 204.06560984 -138.88178635 199.42226791 C-138.88102003 197.72604875 -138.88530463 196.02981791 -138.8952446 194.3336277 C-138.96827358 181.08601265 -137.82912155 169.51622152 -130.52416992 158.14717102 C-130.17791565 157.60491882 -129.83166138 157.06266663 -129.47491455 156.50398254 C-126.47279273 151.81420449 -123.40802945 147.16677137 -120.33666992 142.52217102 C-119.43208798 141.14866081 -118.52778949 139.77496386 -117.6237793 138.40107727 C-110.32912633 127.32411216 -102.97179647 116.28898345 -95.58666992 105.27217102 C-92.58919318 100.7759559 -89.64102851 96.25034159 -86.71166992 91.70967102 C-75.88790146 74.9338121 -64.97513833 58.20688023 -53.85229492 41.62763977 C-52.05731921 38.95167992 -50.28078175 36.26402402 -48.50854492 33.57295227 C-29.87103907 5.3091344 -29.87103907 5.3091344 -11.4094696 0.60876179 C-7.60283183 -0.00022481 -3.84397842 -0.00088857 0 0 Z " fill="#52796F" transform="translate(145.524169921875,183.8528289794922)"/>
<path d="M0 0 C12.32556052 10.42063271 19.13086671 23.62050318 21.640625 39.421875 C21.94107513 43.00954769 22.01125323 46.58451969 22.0546875 50.18359375 C22.07428024 51.24399368 22.09387299 52.30439362 22.11405945 53.39692688 C22.17567195 56.9676652 22.2218305 60.53837589 22.265625 64.109375 C22.29165298 65.97517212 22.29165298 65.97517212 22.31820679 67.87866211 C22.45034858 77.49154525 22.54114421 87.1045443 22.6185379 96.71800995 C22.64185768 99.5727779 22.66654535 102.42753214 22.69134521 105.2822876 C22.80124612 118.1611569 22.87874241 131.03984627 22.92572021 143.9190979 C22.94208122 148.25820141 22.96739627 152.59711604 23.00006104 156.93612671 C23.03818733 162.10622083 23.05642255 167.27601904 23.05970192 172.44624901 C23.06414084 174.37502039 23.07545645 176.30378925 23.09393883 178.23247719 C23.11813331 180.88840727 23.11749843 183.54321352 23.1105957 186.19921875 C23.12340891 186.97901942 23.13622211 187.7588201 23.1494236 188.56225109 C23.11556607 192.06162511 22.92964414 194.03720891 20.79875183 196.87329102 C16.44209514 199.99945055 11.95141498 199.59900048 6.80859375 199.625 C5.50454338 199.63355011 5.50454338 199.63355011 4.17414856 199.64227295 C2.33412898 199.65171778 0.49409252 199.65825488 -1.34594727 199.66210938 C-4.15085644 199.67180237 -6.95502879 199.7028251 -9.75976562 199.734375 C-11.54947483 199.74090668 -13.33918926 199.7461565 -15.12890625 199.75 C-16.38076469 199.7685202 -16.38076469 199.7685202 -17.65791321 199.78741455 C-22.60601474 199.7686339 -26.13517928 199.28900181 -30.359375 196.421875 C-34.72376301 189.45605638 -33.48550586 179.2709226 -33.40234375 171.32421875 C-33.39202789 169.1157299 -33.38358168 166.90723194 -33.37646484 164.69873047 C-33.37225525 163.42229675 -33.36804565 162.14586304 -33.3637085 160.83074951 C-33.33670148 146.20310608 -33.47610141 131.5745147 -33.59507942 116.94748878 C-33.64013162 111.38028915 -33.67940029 105.81317152 -33.70581055 100.24584961 C-33.73188195 94.78336376 -33.77224668 89.32115357 -33.82256126 83.85883904 C-33.83912659 81.79894351 -33.85070471 79.73900108 -33.85698891 77.67904854 C-33.86666737 74.80730287 -33.89474931 71.93626633 -33.92700195 69.06469727 C-33.92556686 68.23290451 -33.92413177 67.40111176 -33.9226532 66.54411316 C-34.04045164 59.08628933 -35.46760842 50.29199489 -40.359375 44.421875 C-51.04197946 36.16148899 -61.02741713 34.65436357 -74.359375 35.421875 C-87.08867129 37.2403459 -97.12017692 43.28105735 -104.91015625 53.4453125 C-116.11117652 69.47984798 -121.12372331 87.21606723 -121.8984375 106.5703125 C-121.94038239 107.59651703 -121.98232727 108.62272156 -122.02554321 109.68002319 C-122.37600135 119.14757327 -122.48720755 128.61318544 -122.5703125 138.0859375 C-122.58479784 139.64231383 -122.59930396 141.19868997 -122.61383057 142.75506592 C-122.6718888 149.15437646 -122.72783785 155.55362881 -122.76074219 161.953125 C-122.78169858 165.92966856 -122.81694077 169.90586744 -122.86149979 173.88221359 C-122.87557461 175.37881822 -122.88436279 176.87548302 -122.88755417 178.37215042 C-122.89247359 180.44980676 -122.91563374 182.52653685 -122.94287109 184.60400391 C-122.95095795 185.77959869 -122.9590448 186.95519348 -122.96737671 188.16641235 C-123.40972875 191.84005221 -124.45286288 194.26707229 -126.359375 197.421875 C-130.60282848 200.13227906 -135.50676472 199.72801276 -140.38671875 199.72265625 C-141.25325577 199.72694138 -142.11979279 199.7312265 -143.0125885 199.73564148 C-144.84065886 199.74137043 -146.66875201 199.74189564 -148.49682617 199.73754883 C-151.28408936 199.73438949 -154.0702898 199.75786332 -156.85742188 199.78320312 C-158.6380195 199.78547643 -160.41861997 199.78617947 -162.19921875 199.78515625 C-163.02751694 199.794366 -163.85581512 199.80357574 -164.70921326 199.81306458 C-169.63320335 199.77395593 -173.15427607 199.26750627 -177.359375 196.421875 C-179.81770135 193.19027642 -179.60399306 190.00253491 -179.58984375 186.0390625 C-179.5897934 185.38417847 -179.58974304 184.72929443 -179.58969116 184.05456543 C-179.58597475 181.80183513 -179.56660149 179.54951892 -179.546875 177.296875 C-179.53920402 175.61670112 -179.53197907 173.93652516 -179.52514648 172.25634766 C-179.43052758 154.39071583 -179.1278266 136.52545039 -178.81573868 118.66247654 C-178.51606032 101.4636351 -178.31742471 84.26743325 -178.22837257 67.06611633 C-178.19368375 60.72484266 -178.14885561 54.38362947 -178.10469341 48.04241562 C-178.06256777 41.78311246 -178.0379721 35.5240313 -178.02525711 29.26460361 C-178.01313774 25.34202317 -177.98459795 21.41968446 -177.95168686 17.49722862 C-177.9397267 15.65797804 -177.93472477 13.81866765 -177.93704605 11.97937965 C-177.93937446 9.44823741 -177.91732135 6.9184145 -177.8894043 4.38745117 C-177.8960035 3.6486994 -177.90260271 2.90994762 -177.90940189 2.14880943 C-177.8443317 -1.42924766 -177.43533128 -3.45732151 -175.51374817 -6.51347351 C-171.63675331 -10.22900586 -167.43384272 -9.75277844 -162.3671875 -9.78125 C-161.19275589 -9.78980011 -161.19275589 -9.78980011 -159.99459839 -9.79852295 C-158.33869779 -9.80796345 -156.68277849 -9.81450316 -155.02685547 -9.81835938 C-152.50064134 -9.82806252 -149.97524192 -9.85909282 -147.44921875 -9.890625 C-145.83854649 -9.89715575 -144.22786842 -9.90240594 -142.6171875 -9.90625 C-141.4888298 -9.9247702 -141.4888298 -9.9247702 -140.337677 -9.94366455 C-135.82181667 -9.9245949 -132.94259371 -9.3766393 -129.359375 -6.578125 C-125.65301099 -1.29759739 -125.61069316 4.5568003 -125.171875 10.796875 C-125.0490918 12.33021484 -125.0490918 12.33021484 -124.92382812 13.89453125 C-124.72455714 16.40300134 -124.53675688 18.9117781 -124.359375 21.421875 C-123.369375 21.421875 -122.379375 21.421875 -121.359375 21.421875 C-121.10929688 20.85855469 -120.85921875 20.29523438 -120.6015625 19.71484375 C-111.8735318 3.60366758 -93.28505426 -5.49033224 -76.546875 -10.69921875 C-50.50203029 -17.88070167 -21.94447114 -17.43639797 0 0 Z " fill="#51786E" transform="translate(768.359375,349.578125)"/>
<path d="M0 0 C0.92468582 -0.00960754 1.84937164 -0.01921509 2.80207825 -0.02911377 C3.80413803 -0.03336365 4.80619781 -0.03761353 5.83862305 -0.04199219 C7.38141182 -0.0505423 7.38141182 -0.0505423 8.95536804 -0.05926514 C11.13511117 -0.06872338 13.31486865 -0.07525238 15.49462891 -0.07910156 C18.82634531 -0.08879735 22.1574424 -0.11980935 25.48901367 -0.15136719 C27.60554646 -0.15789812 29.72208367 -0.16314824 31.83862305 -0.16699219 C33.33260368 -0.18551239 33.33260368 -0.18551239 34.85676575 -0.20440674 C44.01859301 -0.17497274 44.01859301 -0.17497274 47.5378418 3.16113281 C50.02026299 8.64473518 49.80829347 13.96233557 49.76730347 19.85751343 C49.76775103 20.93601488 49.76819859 22.01451633 49.76865971 23.12569964 C49.76760917 26.74094501 49.75209472 30.35598132 49.73657227 33.97119141 C49.73269377 36.56364332 49.72964733 39.1560966 49.72737122 41.74855042 C49.71998624 48.06446094 49.70139863 54.38029062 49.67840557 60.69616185 C49.65973292 65.84025823 49.64431295 70.98435416 49.63116837 76.12846756 C49.59346177 90.74660395 49.54741181 105.36467903 49.49049483 119.98275344 C49.48589447 121.1644985 49.48589447 121.1644985 49.48120117 122.37011719 C49.47659261 123.55332571 49.47659261 123.55332571 49.47189094 124.76043744 C49.4227763 137.49905469 49.39328453 150.23762998 49.37291859 162.9763227 C49.35172958 176.08935681 49.31569328 189.20227951 49.2645694 202.31523192 C49.23621361 209.66339895 49.21366558 217.01146982 49.20708847 224.35969162 C49.20075361 231.2889845 49.17360639 238.21794616 49.13326073 245.14712334 C49.12167388 247.67196545 49.11658269 250.19684834 49.11895561 252.72171593 C49.13223756 273.8775606 47.83582721 295.41834144 39.5378418 315.16113281 C39.22717773 315.90169922 38.91651367 316.64226562 38.59643555 317.40527344 C31.87294797 333.08915036 23.03929153 347.38092056 10.5378418 359.16113281 C9.8778418 359.16113281 9.2178418 359.16113281 8.5378418 359.16113281 C8.5378418 359.82113281 8.5378418 360.48113281 8.5378418 361.16113281 C-10.8764743 377.71406793 -38.25231995 387.38734003 -63.59887695 387.55957031 C-66.4621582 387.16113281 -66.4621582 387.16113281 -68.29418945 385.82519531 C-70.71751595 382.37256292 -70.59078245 379.16178843 -70.5949707 375.08691406 C-70.59722656 373.86866943 -70.59948242 372.6504248 -70.60180664 371.39526367 C-70.59697266 370.10112549 -70.59213867 368.8069873 -70.5871582 367.47363281 C-70.58232422 366.16338135 -70.57749023 364.85312988 -70.57250977 363.50317383 C-70.48228837 348.92971218 -70.48228837 348.92971218 -70.2121582 342.59863281 C-70.16575195 341.42171875 -70.1193457 340.24480469 -70.0715332 339.03222656 C-69.28529024 335.32781259 -68.57683038 334.34093355 -65.4621582 332.16113281 C-62.130504 330.79708324 -58.721434 329.75598887 -55.2746582 328.72363281 C-41.10990277 324.45108415 -29.09092369 318.18366795 -21.73168945 304.76269531 C-14.2496691 289.43030899 -11.30083487 271.4303738 -11.33085632 254.47566223 C-11.32874061 253.41077991 -11.3266249 252.34589758 -11.32444507 251.2487461 C-11.31846181 247.68673505 -11.31944401 244.1247596 -11.3203125 240.56274414 C-11.31728003 238.00665731 -11.31375834 235.45057102 -11.30978394 232.89448547 C-11.30190357 227.39377049 -11.29673321 221.89306294 -11.29349327 216.39234352 C-11.28798701 207.69958681 -11.27108145 199.0068691 -11.25215149 190.31413269 C-11.24579567 187.33836467 -11.23948717 184.36259654 -11.23317432 181.38682842 C-11.23079868 180.27150691 -11.23079868 180.27150691 -11.22837504 179.13365364 C-11.21045521 170.67870483 -11.19421871 162.22375328 -11.17919922 153.76879883 C-11.17782335 152.99624674 -11.17644748 152.22369465 -11.17502991 151.42773189 C-11.15307238 138.89228629 -11.14233593 126.3568508 -11.13482847 113.82138935 C-11.12676321 100.94800176 -11.1034963 88.07470088 -11.0668748 75.20136279 C-11.04483493 67.26169536 -11.03518961 59.3222061 -11.04137514 51.38250961 C-11.04491886 45.30487298 -11.02771984 39.22747892 -11.00269699 33.14988518 C-10.99575426 30.65371779 -10.99569148 28.1575207 -11.00289726 25.66135406 C-11.01172075 22.26243817 -10.99619688 18.86448943 -10.97441101 15.46565247 C-10.98707482 13.97282194 -10.98707482 13.97282194 -10.99999446 12.44983321 C-10.92057121 5.78168775 -10.92057121 5.78168775 -8.5551424 2.57960033 C-5.446291 0.4726543 -3.71886887 0.03114004 0 0 Z " fill="#51786E" transform="translate(510.462158203125,226.8388671875)"/>
<path d="M0 0 C23.76 0 47.52 0 72 0 C72.04010881 27.7998614 72.04010881 27.7998614 72.04882812 39.6796875 C72.05479827 47.77539738 72.06169871 55.871096 72.07543945 63.96679688 C72.08651621 70.4960844 72.09229007 77.02536432 72.09487724 83.5546608 C72.09672024 86.0416292 72.10031913 88.52859695 72.10573006 91.01556015 C72.11302338 94.50762098 72.11398745 97.99963196 72.11352539 101.49169922 C72.11712067 102.51237991 72.12071594 103.53306061 72.12442017 104.58467102 C72.09918906 122.28830997 72.09918906 122.28830997 68.6875 127.8125 C68.07455078 128.84310547 68.07455078 128.84310547 67.44921875 129.89453125 C61.0540438 139.18563448 52.12487566 144.89178741 41 147 C26.82296828 149.09008709 11.83324654 148.94408142 -2.3125 146.75 C-3.0329248 146.64075195 -3.75334961 146.53150391 -4.49560547 146.41894531 C-10.78334127 145.31420593 -15.77994018 143.26183993 -22 141 C-22 123.18 -22 105.36 -22 87 C-17.38 87.99 -12.76 88.98 -8 90 C-5.36 90.33 -2.72 90.66 0 91 C0 60.97 0 30.94 0 0 Z " fill="#C9D1C4" transform="translate(218,231)"/>
</svg>
